<?xml version="1.0" standalone="no"?><!DOCTYPE svg PUBLIC "-//W3C//DTD SVG 1.1//EN" "http://www.w3.org/Graphics/SVG/1.1/DTD/svg11.dtd">
<svg t="1687010548085" class="icon" viewBox="0 0 1024 1024" version="1.1" xmlns="http://www.w3.org/2000/svg" p-id="6047" xmlns:xlink="http://www.w3.org/1999/xlink" width="200" height="200">
<style type="text/css">.st0{fill:#fff;}</style>   
<path class="st0" d="M224.304762 497.371429h175.542857v78.019047H224.304762z" p-id="6048"></path><path class="st0" d="M872.838095 258.438095l-97.523809-146.285714c-9.752381-14.628571-24.380952-24.380952-39.009524-24.380952H258.438095L146.285714 258.438095H4.87619v97.52381h78.019048L19.504762 448.609524c-4.87619 9.752381-4.87619 19.504762-4.876191 29.257143v385.219047H341.333333v-117.028571h204.8v-97.52381H243.809524v117.028572H107.27619v-273.066667l53.638096-78.019048h697.295238l39.009524 58.514286 82.895238-53.638095-39.009524-58.514286H1024v-97.523809h-151.161905zM229.180952 316.952381l82.895238-126.780952h399.84762l82.895238 126.780952H229.180952z" p-id="6049"></path><path class="st0" d="M980.114286 551.009524l-63.390476 34.133333c-19.504762-24.380952-48.761905-39.009524-82.895239-48.761905V463.238095h-78.019047V536.380952c-29.257143 9.752381-58.514286 24.380952-82.895238 48.761905l-63.390476-39.009524v4.876191l-39.009524 68.266666 68.266666 39.009524c-4.87619 9.752381-4.87619 24.380952-4.87619 39.009524 0 14.628571 4.87619 29.257143 4.87619 43.885714l-68.266666 39.009524h-4.876191l39.009524 68.266667 68.266667-39.009524c19.504762 24.380952 48.761905 39.009524 78.019047 48.761905v78.019047H828.952381v-78.019047c29.257143-9.752381 58.514286-24.380952 78.019048-43.885714l68.266666 39.009523 39.009524-68.266666-68.266667-39.009524c4.87619-14.628571 9.752381-29.257143 9.752381-48.761905 0-14.628571-4.87619-29.257143-4.87619-43.885714l63.390476-39.009524-34.133333-63.390476z m-185.295238 234.057143c-48.761905 0-87.771429-39.009524-87.771429-87.771429s39.009524-87.771429 87.771429-87.771428 87.771429 39.009524 87.771428 87.771428-39.009524 87.771429-87.771428 87.771429z" p-id="6050"></path>
</svg>