<?xml version="1.0" standalone="no"?><!DOCTYPE svg PUBLIC "-//W3C//DTD SVG 1.1//EN" "http://www.w3.org/Graphics/SVG/1.1/DTD/svg11.dtd"><svg t="1687055233985" class="icon" viewBox="0 0 1024 1024" version="1.1" xmlns="http://www.w3.org/2000/svg" p-id="10662" xmlns:xlink="http://www.w3.org/1999/xlink" width="200" height="200"><path d="M502.8 563.6c-7.6 0-13.8-6.2-13.8-13.8V384.6c0-7.6 6.2-13.8 13.8-13.8 7.6 0 13.8 6.2 13.8 13.8v165.2c0 7.6-6.2 13.8-13.8 13.8z" fill="#ffffff" p-id="10663"></path><path d="M681.8 549.8c0 7.6-6.2 13.8-13.8 13.8H502.8c-7.6 0-13.8-6.2-13.8-13.8 0-7.6 6.2-13.8 13.8-13.8H668c7.6 0 13.8 6.2 13.8 13.8z" fill="#ffffff" p-id="10664"></path><path d="M511.3 102C283.5 102 98.2 287.3 98.2 515.1c0 23.8 2.6 48 6.5 70.7 0 0.1 0.2 0.1 0.3 0.2 1.6 5.8 6.7 10.1 13 10.1 7.6 0 13.8-6.2 13.8-13.8 0-0.5-0.2-0.9-0.3-1.3l0.2-0.1c-3.7-21.4-6-43.3-6-65.7 0-212.9 172.6-385.6 385.6-385.6s385.6 172.6 385.6 385.6-172.6 385.5-385.6 385.5c-142.3 0-266.3-77.3-333.1-192 0-0.1-0.1-0.1-0.1-0.2l-0.6-0.9c-2.3-4.3-6.7-7.4-12-7.4-7.6 0-13.8 6.2-13.8 13.8 0 3 1.1 5.6 2.8 7.8l-0.2 0.1c71.6 123.1 204.6 206.2 357 206.2 227.8 0 413.1-185.3 413.1-413.1S739.1 102 511.3 102z" fill="#ffffff" p-id="10665"></path><path d="M502.8 923.9c-7.6 0-13.8-6.2-13.8-13.8v-39.6c0-7.6 6.2-13.8 13.8-13.8 7.6 0 13.8 6.2 13.8 13.8v39.6c0 7.7-6.2 13.8-13.8 13.8zM912.7 549.8c0 7.6-6.2 13.8-13.8 13.8h-39.6c-7.6 0-13.8-6.2-13.8-13.8 0-7.6 6.2-13.8 13.8-13.8H899c7.6 0 13.7 6.2 13.7 13.8zM502.8 176.9c-7.6 0-13.8-6.2-13.8-13.8v-39.6c0-7.6 6.2-13.8 13.8-13.8 7.6 0 13.8 6.2 13.8 13.8v39.6c0 7.6-6.2 13.8-13.8 13.8z" fill="#ffffff" p-id="10666"></path></svg>