<?xml version="1.0" standalone="no"?><!DOCTYPE svg PUBLIC "-//W3C//DTD SVG 1.1//EN" "http://www.w3.org/Graphics/SVG/1.1/DTD/svg11.dtd">
<svg t="1687010481420" class="icon" viewBox="0 0 1024 1024" version="1.1" xmlns="http://www.w3.org/2000/svg" p-id="3990" xmlns:xlink="http://www.w3.org/1999/xlink" width="200" height="200">
<style type="text/css">.st0{fill:#fff;}</style>   
<path class="st0" d="M512 0S377.764393 159.631532 63.943313 159.631532v317.44907c0 175.957484 89.792737 345.565988 246.703277 454.405669 57.140833 38.093888 121.537644 69.838795 201.35341 92.513729 77.094774-19.046944 144.212578-54.419841 201.35341-92.513729 159.631532-108.839681 246.703277-278.448184 246.703277-454.405669V159.631532C646.235607 159.631532 512 0 512 0z m383.659876 477.080602v34.465899H543.744907V108.839681c70.745793 44.44287 185.934455 102.4907 351.914969 111.560673v256.680248zM128.340124 220.400354c165.980514-12.697963 281.169176-67.117803 351.914969-111.560673v402.70682H128.340124V220.400354z m6.348981 355.542959h345.565988v370.961913c-45.349867-15.418955-89.792737-31.744907-131.514615-60.768822-115.188663-77.094774-192.283437-214.051373-214.051373-310.193091z m540.570417 310.193091c-41.721878 29.023915-86.164748 41.721878-131.514615 60.768822V575.943313h345.565988c-22.674934 96.141718-98.86271 233.098317-214.051373 310.193091z" fill="#2c2c2c" p-id="3991"></path>
</svg>