<?xml version="1.0" standalone="no"?><!DOCTYPE svg PUBLIC "-//W3C//DTD SVG 1.1//EN" "http://www.w3.org/Graphics/SVG/1.1/DTD/svg11.dtd"><svg t="1687054252668" class="icon" viewBox="0 0 1024 1024" version="1.1" xmlns="http://www.w3.org/2000/svg" p-id="6199" xmlns:xlink="http://www.w3.org/1999/xlink" width="200" height="200"><path d="M336.861718 499.330422v193.770015H775.080058v-193.770015-11.924308c-5.962154-116.262009-101.356623-208.6754-219.10917-208.675401-117.752547 0-213.147016 92.413392-219.10917 208.675401v11.924308zM779.551674 333.88064l99.866084-71.545851c7.452693-5.962154 8.943231-16.395924 4.471616-23.848617-5.962154-7.452693-16.395924-8.943231-23.848617-4.471616L760.174672 305.560408c-7.452693 5.962154-8.943231 16.395924-4.471615 23.848617 5.962154 7.452693 16.395924 8.943231 23.848617 4.471615zM260.84425 779.551674V819.796215h590.253275v-38.754002c0-34.282387-28.320233-62.60262-62.60262-62.602621H324.937409c-35.772926-1.490539-64.093159 26.829694-64.093159 61.112082zM555.970888 236.995633c8.943231 0 16.395924-7.452693 16.395924-16.395924V98.375546c0-8.943231-7.452693-16.395924-16.395924-16.395924-8.943231 0-16.395924 7.452693-16.395924 16.395924v122.224163c0 8.943231 7.452693 16.395924 16.395924 16.395924zM332.390102 339.842795c7.452693 5.962154 17.886463 4.471616 23.848617-1.490539 5.962154-7.452693 4.471616-17.886463-1.490539-23.848617l-93.90393-78.998544c-7.452693-5.962154-17.886463-4.471616-23.848617 1.490538-5.962154 7.452693-4.471616 17.886463 1.490539 23.848617l93.90393 78.998545zM293.636099 517.216885c0-8.943231-7.452693-16.395924-16.395924-16.395924h-122.224163c-8.943231 0-16.395924 7.452693-16.395925 16.395924 0 8.943231 7.452693 16.395924 16.395925 16.395924h122.224163c8.943231 0 16.395924-7.452693 16.395924-16.395924zM222.090247 821.286754h670.742359v80.489083h-670.742359zM943.510917 500.820961h-122.224163c-8.943231 0-16.395924 7.452693-16.395924 16.395924 0 8.943231 7.452693 16.395924 16.395924 16.395924h122.224163c8.943231 0 16.395924-7.452693 16.395924-16.395924 0-8.943231-7.452693-16.395924-16.395924-16.395924z" fill="#0e8de8" p-id="6200"></path></svg>