<?xml version="1.0" standalone="no"?><!DOCTYPE svg PUBLIC "-//W3C//DTD SVG 1.1//EN" "http://www.w3.org/Graphics/SVG/1.1/DTD/svg11.dtd">
<svg t="1687010385053" class="icon" viewBox="0 0 1024 1024" version="1.1" xmlns="http://www.w3.org/2000/svg" p-id="2996" xmlns:xlink="http://www.w3.org/1999/xlink" width="200" height="200">
<style type="text/css">.st0{fill:#fff;color:#fff;}</style>   
<path class="st0" d="M512.1 468.2c60.2 0 106.9 4.7 142.8 14.4 30.4 8.2 52.1 19.7 66.5 35.3 11.9 12.9 19.2 29 23 50.8 3.7 21.2 3.7 45.5 3.7 71.2 0 44.8-23.8 87.2-67 119.6-21.7 16.3-47.1 29.1-75.4 38-29.6 9.4-61.1 14.1-93.6 14.1s-64-4.8-93.6-14.1c-28.3-9-53.7-21.8-75.4-38-43.2-32.3-67-74.8-67-119.6 0-25.7 0-50 3.7-71.2 3.8-21.8 11.1-37.9 23-50.8 14.4-15.6 36.1-27.2 66.5-35.3 35.9-9.7 82.6-14.4 142.8-14.4m0-20c-256 0-256 85.9-256 191.8s114.6 191.8 256 191.8 256-85.9 256-191.8 0-191.8-256-191.8z" p-id="2997"></path>
<path  class="st0" d="M330.8 775.3c-37.6 0-72.8-24.8-99.1-69.8-25.6-43.8-39.7-101.7-39.7-163 0-66.1 13.1-152.6 33.4-220.3 17.8-59.5 48.6-130.4 94.3-130.4 7.1 0 13.3 2.8 17.8 8 17.3 20.1 8.8 76.6-1 142.1-8.4 56.5-17.2 114.9-8.9 148.6 1 4-1.5 8.1-5.5 9.1s-8.1-1.5-9.1-5.5c-8.9-36.5 0-96.4 8.7-154.4 8.1-54 17.2-115.3 4.4-130.1-1.7-2-3.6-2.8-6.4-2.8-28 0-57.1 43.6-79.9 119.7-19.9 66.5-32.8 151.3-32.8 216 0 58.7 13.4 113.9 37.6 155.4 23.5 40.2 54.1 62.3 86.2 62.3 4.1 0 7.5 3.4 7.5 7.5s-3.3 7.6-7.5 7.6zM693.2 775.3c-4.1 0-7.5-3.4-7.5-7.5s3.4-7.5 7.5-7.5c32.1 0 62.8-22.1 86.3-62.4 24.3-41.5 37.7-96.7 37.7-155.4 0-64.7-12.9-149.5-32.8-216-22.8-76.1-52-119.7-80-119.7-2.8 0-4.8 0.9-6.4 2.8-12.8 14.9-3.6 76.1 4.4 130.1 8.7 57.9 17.6 117.9 8.7 154.4-1 4-5.1 6.5-9.1 5.5s-6.5-5-5.5-9.1c8.3-33.6-0.5-92.1-8.9-148.6-9.8-65.5-18.3-122-1-142.1 4.5-5.2 10.7-8 17.8-8 45.7 0 76.6 70.9 94.4 130.4 20.3 67.8 33.5 154.3 33.5 220.3 0 61.3-14.1 119.2-39.8 163-26.4 45-61.7 69.8-99.3 69.8zM592.4 657.5H433.8c-9.2 0-16.7-7.5-16.7-16.7s7.5-16.7 16.7-16.7h158.5c9.2 0 16.7 7.5 16.7 16.7 0.1 9.1-7.4 16.7-16.6 16.7z" p-id="2998"></path>
<path class="st0" d="M592.4 667H433.8c-14.5 0-26.2-11.8-26.2-26.2 0-14.5 11.8-26.2 26.2-26.2h158.5c14.5 0 26.2 11.8 26.2 26.2 0.1 14.4-11.7 26.2-26.1 26.2z m-158.6-33.5c-4 0-7.2 3.3-7.2 7.2 0 4 3.3 7.2 7.2 7.2h158.5c4 0 7.2-3.3 7.2-7.2 0-4-3.3-7.2-7.2-7.2H433.8z" p-id="2999"></path>
<path class="st0" d="M529.9 561.4V720c0 9.2-7.5 16.7-16.7 16.7s-16.7-7.5-16.7-16.7V561.4c0-9.2 7.5-16.7 16.7-16.7 9.1 0 16.7 7.5 16.7 16.7z" p-id="3000"></path>
<path class="st0" d="M513.1 746.2c-14.5 0-26.2-11.8-26.2-26.2V561.4c0-14.5 11.8-26.2 26.2-26.2 14.5 0 26.2 11.8 26.2 26.2V720c0.1 14.5-11.7 26.2-26.2 26.2z m0-192c-4 0-7.2 3.3-7.2 7.2V720c0 4 3.3 7.2 7.2 7.2 4 0 7.2-3.3 7.2-7.2V561.4c0.1-4-3.2-7.2-7.2-7.2z" p-id="3001"></path>
</svg>