<?xml version="1.0" standalone="no"?><!DOCTYPE svg PUBLIC "-//W3C//DTD SVG 1.1//EN" "http://www.w3.org/Graphics/SVG/1.1/DTD/svg11.dtd">
<svg t="1687010117640" class="icon" viewBox="0 0 1024 1024" version="1.1" xmlns="http://www.w3.org/2000/svg" p-id="1638" xmlns:xlink="http://www.w3.org/1999/xlink" width="200" height="200">
<style type="text/css">.st0{fill:#fff;color:#fff;}</style> 
<path class="st0" d="M859.69 898.05h-25.6V314.61c0-28.16-23.04-51.12-51.12-51.12H655.13V135.66c0-28.16-23.04-51.12-51.12-51.12h-391.2c-28.08 0-51.12 23.04-51.12 51.12v762.4h-25.6c-14.08 0-25.6 11.52-25.6 25.6 0 14.08 11.52 25.6 25.6 25.6h723.52c14.08 0 25.6-11.52 25.6-25.6 0-14.09-11.44-25.61-25.52-25.61zM604.01 314.61v583.44h-391.2v-766h391.2v182.56z m178.96 583.44H655.13V314.61h127.84v583.44z m0 0" fill="#333333" p-id="1639"></path>
<path class="st0" d="M291.09 278.94h237.84c14.08 0 25.6-11.52 25.6-25.6 0-14.08-11.52-25.6-25.6-25.6H291.09c-14.08 0-25.6 11.52-25.6 25.6 0.08 14.08 11.52 25.6 25.6 25.6zM290.27 456.14h237.84c14.08 0 25.6-11.52 25.6-25.6 0-14.08-11.52-25.6-25.6-25.6H290.27c-14.08 0-25.6 11.52-25.6 25.6 0.08 14.08 11.52 25.6 25.6 25.6zM291.53 803.47h237.84c14.08 0 25.6-11.52 25.6-25.6 0-14.08-11.52-25.6-25.6-25.6H291.53c-14.08 0-25.6 11.52-25.6 25.6 0 14.08 11.52 25.6 25.6 25.6zM706.33 668.05h25.6c14.08 0 25.6-11.52 25.6-25.6 0-14.08-11.52-25.6-25.6-25.6h-25.6c-14.08 0-25.6 11.52-25.6 25.6 0 14.08 11.52 25.6 25.6 25.6zM706.33 528h25.6c14.08 0 25.6-11.52 25.6-25.6 0-14.08-11.52-25.6-25.6-25.6h-25.6c-14.08 0-25.6 11.52-25.6 25.6 0 14.08 11.52 25.6 25.6 25.6zM706.33 795.82h25.6c14.08 0 25.6-11.52 25.6-25.6 0-14.08-11.52-25.6-25.6-25.6h-25.6c-14.08 0-25.6 11.52-25.6 25.6 0 14.08 11.52 25.6 25.6 25.6zM291.22 626.8h237.84c14.08 0 25.6-11.52 25.6-25.6 0-14.08-11.52-25.6-25.6-25.6H291.22c-14.08 0-25.6 11.52-25.6 25.6 0.01 14.08 11.53 25.6 25.6 25.6z" p-id="1640"></path>
</svg>