<?xml version="1.0" standalone="no"?><!DOCTYPE svg PUBLIC "-//W3C//DTD SVG 1.1//EN" "http://www.w3.org/Graphics/SVG/1.1/DTD/svg11.dtd"><svg t="1687091200474" class="icon" viewBox="0 0 1024 1024" version="1.1" xmlns="http://www.w3.org/2000/svg" p-id="9782" xmlns:xlink="http://www.w3.org/1999/xlink" width="200" height="200"><path d="M162 904a8 8 0 0 1 8-8h370a8 8 0 0 1 8 8v48a8 8 0 0 1-8 8H170a8 8 0 0 1-8-8v-48zM323 72a8 8 0 0 1 8-8h44a8 8 0 0 1 8 8v745a8 8 0 0 1-8 8h-44a8 8 0 0 1-8-8V72zM651 386.5c0-22.92-18.58-41.5-41.5-41.5S568 363.58 568 386.5s18.58 41.5 41.5 41.5 41.5-18.58 41.5-41.5z m56 0c0 53.848-43.652 97.5-97.5 97.5S512 440.348 512 386.5s43.652-97.5 97.5-97.5 97.5 43.652 97.5 97.5z" fill="#ffffff" p-id="9783"></path><path d="M610.5 256C539.531 256 482 313.531 482 384.5c0 0.835 0.008 1.669 0.024 2.501h256.952A130.1 130.1 0 0 0 739 384.5c0-70.969-57.531-128.5-128.5-128.5zM311.9 832h83.839l10.687 64H301.379l10.521-64z m-27.169-64c-15.67 0-29.035 11.347-31.576 26.809l-21.041 128C228.911 942.293 243.944 960 263.69 960h180.523c19.778 0 34.821-17.763 31.563-37.271l-21.375-128C451.825 779.304 438.477 768 422.838 768H284.731zM192.872 241.665a8 8 0 0 1 5.657-9.798l550.032-147.38a8 8 0 0 1 9.798 5.656l12.423 46.365a8 8 0 0 1-5.657 9.798l-550.032 147.38a8 8 0 0 1-9.798-5.656l-12.423-46.365z" fill="#ffffff" p-id="9784"></path><path d="M576 139h64v137h-64V139z" fill="#ffffff" p-id="9785"></path></svg>