<?xml version="1.0" standalone="no"?><!DOCTYPE svg PUBLIC "-//W3C//DTD SVG 1.1//EN" "http://www.w3.org/Graphics/SVG/1.1/DTD/svg11.dtd"><svg t="1687091150940" class="icon" viewBox="0 0 1024 1024" version="1.1" xmlns="http://www.w3.org/2000/svg" p-id="3226" xmlns:xlink="http://www.w3.org/1999/xlink" width="200" height="200"><path d="M238.486172 930.09607v41.73508c0 11.924309 4.471616 20.86754 11.924308 29.810771 8.943231 8.943231 17.886463 11.924309 29.810772 11.924309h332.390102c11.924309 0 20.86754-4.471616 29.810771-11.924309 8.943231-7.452693 11.924309-17.886463 11.924309-29.810771v-41.73508H238.486172zM639.441048 383.068413H253.391557c-8.943231 32.791849-14.905386 68.564774-14.905385 95.394469v392.011645h415.860262V479.953421c0-28.320233-4.471616-64.093159-14.905386-96.885008z" fill="#ffffff" p-id="3227"></path><path d="M770.608443 557.461426c-11.924309-14.905386-22.358079-31.30131-29.810772-49.187772-22.358079-46.206696-28.320233-98.375546-31.30131-149.053858-1.490539-26.829694-1.490539-55.149927 0-81.979621 1.490539-23.848617 5.962154-47.697234 4.471616-73.03639 0-25.339156-4.471616-49.187773-17.886463-70.055313-13.414847-19.377001-34.282387-35.772926-56.640466-43.225619-37.263464-11.924309-76.017467-10.43377-113.280932 0V89.432314c0-5.962154-4.471616-8.943231-8.943231-8.943231h-8.943231c-10.43377-28.320233-37.263464-49.187773-68.564775-49.187773-28.320233 0-52.16885 16.395924-65.583697 38.754003-41.73508 0-122.224163 0-183.336245-2.981077-11.924309-1.490539-11.924309 0-17.886462 5.962154-5.962154 7.452693-5.962154 32.791849-1.490539 37.263464 1.490539 1.490539 4.471616 2.981077 7.452693 2.981078 0 0 28.320233-10.43377 166.94032-10.43377 4.471616 0 8.943231 5.962154 1.490539 10.43377-23.848617 14.905386-99.866084 43.225619-125.205241 55.149927-5.962154 2.981077-10.43377 7.452693-11.924308 11.924308-1.490539 5.962154-1.490539 14.905386-2.981077 22.358079 0 5.962154 7.452693 10.43377 13.414847 7.452693 32.791849-17.886463 81.979622-50.678311 146.07278-73.03639 1.490539 0 4.471616-1.490539 5.962154-1.490539 2.981077 7.452693 7.452693 13.414847 11.924309 17.886463v89.432314h-1.490539c-43.225619 13.414847-77.508006 43.225619-104.3377 80.489083-2.981077 4.471616-7.452693 10.43377-10.43377 16.395925H623.045124c-4.471616-8.943231-10.43377-17.886463-16.395925-25.339156-26.829694-32.791849-65.583697-53.659389-116.262008-71.545852v-87.941775c4.471616-4.471616 7.452693-8.943231 10.43377-13.414848h14.905385c5.962154 0 8.943231-4.471616 8.943232-8.943231v-11.924309c31.30131-8.943231 65.583697-13.414847 95.394469-4.471615 17.886463 4.471616 34.282387 13.414847 46.206695 26.829694 11.924309 14.905386 16.395924 32.791849 17.886463 50.678312 1.490539 23.848617-1.490539 47.697234-4.471615 71.545851-2.981077 26.829694-1.490539 53.659389-1.490539 81.979622 1.490539 52.16885 5.962154 108.809316 26.829694 157.997088 10.43377 25.339156 25.339156 49.187773 41.73508 71.545852l-5.962154 5.962154-16.395924 16.395925 131.167394 165.449781 93.90393-86.451237-156.50655-143.091703-22.358078 22.358078z" fill="#ffffff" p-id="3228"></path></svg>