<?xml version="1.0" standalone="no"?><!DOCTYPE svg PUBLIC "-//W3C//DTD SVG 1.1//EN" "http://www.w3.org/Graphics/SVG/1.1/DTD/svg11.dtd"><svg t="1687060054943" class="icon" viewBox="0 0 1024 1024" version="1.1" xmlns="http://www.w3.org/2000/svg" p-id="25406" xmlns:xlink="http://www.w3.org/1999/xlink" width="200" height="200"><path d="M884.07 879.87H640a16 16 0 0 1-16-16v-303.6H207.94v303.6a16 16 0 0 1-16 16h-52a28 28 0 0 1-28-28V492.35a28 28 0 0 1 28-28h744.13a28 28 0 0 1 28 28v359.52a28 28 0 0 1-28 28z m-228.07-32h224.07V496.35H143.93v351.52h32v-291.6a28 28 0 0 1 28-28H628a28 28 0 0 1 28 28z" fill="#298fd8" p-id="25407"></path><path d="M384 496.35a16 16 0 0 1-16-16v-64.42a16 16 0 0 1 32 0v64.42a16 16 0 0 1-16 16z" fill="#298fd8" p-id="25408"></path><path d="M564 431.93H203.94a28 28 0 0 1-28-28v-231.8a28 28 0 0 1 28-28H564a28 28 0 0 1 28 28v231.8a28 28 0 0 1-28 28z m-356.08-32H560v-223.8H207.94z" fill="#298fd8" p-id="25409"></path><path d="M704 496.35a16 16 0 0 1-16-16V352.14a16 16 0 1 1 32 0v128.21a16 16 0 0 1-16 16zM832.07 496.35a16 16 0 0 1-16-16V288.1a16 16 0 0 1 32 0v192.25a16 16 0 0 1-16 16z" fill="#298fd8" p-id="25410"></path></svg>