<?xml version="1.0" standalone="no"?><!DOCTYPE svg PUBLIC "-//W3C//DTD SVG 1.1//EN" "http://www.w3.org/Graphics/SVG/1.1/DTD/svg11.dtd"><svg t="1687055266916" class="icon" viewBox="0 0 1024 1024" version="1.1" xmlns="http://www.w3.org/2000/svg" p-id="11508" xmlns:xlink="http://www.w3.org/1999/xlink" width="200" height="200"><path d="M244.9 601c12.3 0 22.3-10 22.3-22.3 0-135 109.8-244.9 244.9-244.9S757 443.6 757 578.7c0 12.3 10 22.3 22.3 22.3s22.3-10 22.3-22.3c0-159.6-129.8-289.4-289.4-289.4S222.6 419.2 222.6 578.8c0 12.3 10 22.2 22.3 22.2zM512 244.9c12.3 0 22.3-10 22.3-22.3V89c0-12.3-10-22.3-22.3-22.3s-22.3 10-22.3 22.3v133.6c0 12.3 10 22.3 22.3 22.3zM763.9 349.2c5.7 0 11.4-2.2 15.7-6.5l94.4-94.4c8.7-8.7 8.7-22.8 0-31.5s-22.8-8.7-31.5 0l-94.4 94.4c-8.7 8.7-8.7 22.8 0 31.5 4.4 4.3 10.1 6.5 15.8 6.5zM1001.7 556.5H868.2c-12.3 0-22.3 10-22.3 22.3s10 22.3 22.3 22.3h133.6c12.3 0 22.3-10 22.3-22.3s-10.1-22.3-22.4-22.3zM178.1 578.8c0-12.3-10-22.3-22.3-22.3H22.3C10 556.5 0 566.5 0 578.8S10 601 22.3 601h133.6c12.2 0 22.2-9.9 22.2-22.2zM244.4 342.7c4.3 4.3 10 6.5 15.7 6.5s11.4-2.2 15.7-6.5c8.7-8.7 8.7-22.8 0-31.5l-94.4-94.4c-8.7-8.7-22.8-8.7-31.5 0s-8.7 22.8 0 31.5l94.5 94.4zM935 734.6H89c-12.3 0-22.3 10-22.3 22.3s10 22.3 22.3 22.3h846c12.3 0 22.3-10 22.3-22.3s-10-22.3-22.3-22.3zM779.1 912.7H244.9c-12.3 0-22.3 10-22.3 22.3s10 22.3 22.3 22.3h534.3c12.3 0 22.3-10 22.3-22.3s-10.1-22.3-22.4-22.3z" fill="#ffffff" p-id="11509"></path></svg>