<?xml version="1.0" standalone="no"?><!DOCTYPE svg PUBLIC "-//W3C//DTD SVG 1.1//EN" "http://www.w3.org/Graphics/SVG/1.1/DTD/svg11.dtd"><svg t="1687055333373" class="icon" viewBox="0 0 1024 1024" version="1.1" xmlns="http://www.w3.org/2000/svg" p-id="12203" xmlns:xlink="http://www.w3.org/1999/xlink" width="200" height="200"><path d="M981.333333 896a42.666667 42.666667 0 0 1 0 85.333333H42.666667a42.666667 42.666667 0 0 1 0-85.333333h938.666666z m-469.333333-384a256 256 0 0 1 255.829333 246.4L768 768a42.666667 42.666667 0 0 1-85.333333 0 170.112 170.112 0 0 0-50.005334-120.661333A170.112 170.112 0 0 0 512 597.333333a170.112 170.112 0 0 0-120.661333 50.005334 170.112 170.112 0 0 0-49.706667 110.634666L341.333333 768a42.666667 42.666667 0 0 1-85.333333 0 256 256 0 0 1 256-256z m-384 213.333333a42.666667 42.666667 0 0 1 0 85.333334H42.666667a42.666667 42.666667 0 0 1 0-85.333334h85.333333z m853.333333 0a42.666667 42.666667 0 0 1 0 85.333334h-85.333333a42.666667 42.666667 0 0 1 0-85.333334h85.333333zM210.304 405.973333l60.330667 60.330667a42.666667 42.666667 0 0 1-60.330667 60.330667L149.973333 466.346667a42.666667 42.666667 0 1 1 60.330667-60.330667z m663.722667 0a42.666667 42.666667 0 0 1 0 60.330667l-60.330667 60.330667a42.666667 42.666667 0 0 1-60.330667-60.330667l60.330667-60.330667a42.666667 42.666667 0 0 1 60.330667 0zM512 42.666667a42.666667 42.666667 0 0 1 42.666667 42.666666v195.669334l108.202666-108.202667a42.666667 42.666667 0 0 1 60.330667 60.330667l-181.034667 181.034666-3.498666 3.114667-0.256 0.213333a42.624 42.624 0 0 1-1.92 1.450667l-1.621334 1.066667-0.512 0.341333a38.997333 38.997333 0 0 1-8.746666 4.096 42.538667 42.538667 0 0 1-1.152 0.384l-1.365334 0.384-1.194666 0.298667-1.28 0.256a42.752 42.752 0 0 1-1.109334 0.213333l-1.450666 0.256-1.066667 0.128-0.981333 0.128a42.88 42.88 0 0 1-1.493334 0.085333l-1.706666 0.085334h-1.664l-1.664-0.085334-1.493334-0.085333-0.981333-0.128a42.666667 42.666667 0 0 1-1.152-0.128l-1.365333-0.256a70.656 70.656 0 0 1-3.498667-0.768 42.581333 42.581333 0 0 1-2.602667-0.768l-0.768-0.256a40.362667 40.362667 0 0 1-6.4-2.944l-1.024-0.554667a42.368 42.368 0 0 1-0.554666-0.341333l-0.512-0.341333a46.08 46.08 0 0 1-1.962667-1.28l-1.792-1.408-0.042667-0.042667v0.042667l-0.341333-0.298667-0.554667-0.426667-2.602666-2.432L300.8 233.130667A42.666667 42.666667 0 0 1 361.130667 172.8L469.333333 281.002667 469.333333 85.333333a42.666667 42.666667 0 0 1 42.666667-42.666666z" fill="#fff" p-id="12204"></path></svg>