<?xml version="1.0" standalone="no"?><!DOCTYPE svg PUBLIC "-//W3C//DTD SVG 1.1//EN" "http://www.w3.org/Graphics/SVG/1.1/DTD/svg11.dtd">
<svg t="1687010645012" class="icon" viewBox="0 0 1024 1024" version="1.1" xmlns="http://www.w3.org/2000/svg" p-id="8485" xmlns:xlink="http://www.w3.org/1999/xlink" width="200" height="200">
<style type="text/css">.st0{fill:#fff;}</style> 
<path class="st0" d="M949.6 991.2H74.4c-8.8 0-16-7.2-16-16V509.6H20c-8.8 0-16-7.2-16-16V191.2c0-8.8 7.2-16 16-16h984c8.8 0 16 7.2 16 16v302.4c0 8.8-7.2 16-16 16h-38.4v465.6c0 8.8-7.2 16-16 16z m-859.2-32h844V493.6c0-8.8 7.2-16 16-16h38.4V207.2H36v270.4h38.4c8.8 0 16 7.2 16 16v465.6z" fill="#303C42" p-id="8486"></path>
<path class="st0" d="M573.6 677.6H450.4c-4.8 0-8-3.2-8-8v-176c0-4.8 3.2-8 8-8h123.2c4.8 0 8 3.2 8 8v176c0 4-4 8-8 8z m-115.2-16h107.2v-160H458.4v160zM669.6 207.2H354.4c-8.8 0-16-7.2-16-16V82.4c0-6.4 4-12 9.6-14.4 104-45.6 224-45.6 328 0 5.6 2.4 9.6 8 9.6 14.4v108.8c0 8.8-7.2 16-16 16z m-299.2-32h283.2V92.8C563.2 56 460.8 56 370.4 92.8v82.4z" fill="#303C42" p-id="8487"></path>
<path class="st0" d="M1004 501.6H20c-4.8 0-8-3.2-8-8V191.2c0-4.8 3.2-8 8-8h984c4.8 0 8 3.2 8 8v302.4c0 4-3.2 8-8 8z m-976-16h968V199.2H28v286.4z" fill="#303C42" p-id="8488"></path>
</svg>