<?xml version="1.0" standalone="no"?><!DOCTYPE svg PUBLIC "-//W3C//DTD SVG 1.1//EN" "http://www.w3.org/Graphics/SVG/1.1/DTD/svg11.dtd"><svg t="1687090623085" class="icon" viewBox="0 0 1024 1024" version="1.1" xmlns="http://www.w3.org/2000/svg" p-id="9307" xmlns:xlink="http://www.w3.org/1999/xlink" width="200" height="200"><path d="M0 0h1024v1024H0z" fill="#ffffff" fill-opacity="0" p-id="9308"></path><path d="M842.24 567.296l22.186667 60.074667-164.693334 60.629333 24.021334 48h118.912V661.333333h64v213.333334h-64v-74.666667h-158.464l-44.842667-89.770667-180.309333 66.474667-22.101334-60.074667 405.333334-149.333333zM132.266667 514.133333l145.066666 189.866667-68.266666 19.2-145.066667-189.866667 68.266667-19.2z m689.024-346.837333l1.621333 4.693333 83.925333 302.208a42.666667 42.666667 0 0 1-21.674666 49.408l-4.608 2.005334L371.2 714.282667a42.666667 42.666667 0 0 1-45.653333-10.538667l-3.328-3.84-202.026667-269.397333a42.666667 42.666667 0 0 1 15.36-63.914667l4.565333-1.92 627.456-221.44a42.666667 42.666667 0 0 1 53.717334 24.064zM682.666667 298.666667a42.666667 42.666667 0 1 0 0 85.333333 42.666667 42.666667 0 0 0 0-85.333333z" fill="#ffffff" p-id="9309"></path></svg>