<?xml version="1.0" standalone="no"?><!DOCTYPE svg PUBLIC "-//W3C//DTD SVG 1.1//EN" "http://www.w3.org/Graphics/SVG/1.1/DTD/svg11.dtd"><svg t="1687056336984" class="icon" viewBox="0 0 1024 1024" version="1.1" xmlns="http://www.w3.org/2000/svg" p-id="18688" xmlns:xlink="http://www.w3.org/1999/xlink" width="200" height="200"><path d="M891.4 656.7l-10.3-38.6-99.3 26.6-41.8-24.1 143.1-38.4-10.4-38.6L691 592.3l-28.5-16.5 47.3-12.6-10.3-38.7-85.9 23L552 512l61.6-35.5 85.9 23 10.3-38.7-47.3-12.6 25.6-14.7 181.6 48.6 10.4-38.6L737 405.2l44.8-25.9 99.3 26.6 10.3-38.6-60.6-16.3 79.2-45.7-20-34.6-79.2 45.7 16.3-60.6-38.7-10.4-26.6 99.3-41.8 24.1 38.4-143-38.7-10.4L671 397.1l-28.5 16.4 12.7-47.2-38.6-10.4-23 85.9-61.6 35.6v-71.1l62.9-62.9-28.3-28.3-34.6 34.6v-29.4l133-133-28.3-28.3L532 263.7V212l72.7-72.7-28.3-28.3-44.4 44.4V64h-40v91.4L447.6 111l-28.3 28.3L492 212v48.2L387.3 155.5 359 183.8l133 133v32.9l-34.6-34.6-28.3 28.3 62.9 62.9v71.1l-61.6-35.6-23-85.9-38.6 10.4 12.7 47.2-25.6-14.7-48.6-181.6-38.7 10.3 38.4 143-44.8-25.8-26.6-99.3-38.7 10.4 16.3 60.6-79.2-45.7-20 34.6 79.2 45.7-60.6 16.3 10.3 38.6 99.3-26.6 41.8 24.1-143.1 38.4 10.4 38.6L333 431.7l28.5 16.5-47.3 12.6 10.3 38.7 85.9-23L472 512l-61.6 35.5-85.9-23-10.3 38.7 47.3 12.6-25.5 14.7-181.7-48.6-10.4 38.6L287 618.8l-44.8 25.9-99.3-26.6-10.3 38.6 60.6 16.3-79.2 45.7 20 34.6 79.2-45.7-16.3 60.6 38.7 10.4 26.6-99.3 41.8-24.1-38.4 143 38.7 10.4L353 626.9l28.5-16.4-12.7 47.2 38.6 10.4 23-85.9 61.6-35.6v71.1l-62.9 62.9 28.3 28.3 34.6-34.6v29.4l-133 133 28.3 28.3L492 760.3V812l-72.7 72.7 28.3 28.3 44.4-44.4V960h40v-91.4l44.4 44.4 28.3-28.3L532 812v-48.2l104.7 104.7 28.3-28.3-133-133v-32.9l34.6 34.6 28.3-28.3-62.9-62.9v-71.1l61.6 35.6 23 85.9 38.6-10.4-12.7-47.2 25.5 14.7 48.7 181.6 38.7-10.3-38.4-143 44.8 25.8 26.6 99.3 38.7-10.4-16.3-60.6 79.2 45.7 20-34.6-79.2-45.7z" p-id="18689" fill="#ffffff"></path></svg>