<?xml version="1.0" standalone="no"?><!DOCTYPE svg PUBLIC "-//W3C//DTD SVG 1.1//EN" "http://www.w3.org/Graphics/SVG/1.1/DTD/svg11.dtd"><svg t="1687055301896" class="icon" viewBox="0 0 1024 1024" version="1.1" xmlns="http://www.w3.org/2000/svg" p-id="11702" xmlns:xlink="http://www.w3.org/1999/xlink" width="200" height="200"><path d="M512 224c-159.06 0-288 128.94-288 288s128.94 288 288 288 288-128.94 288-288-128.94-288-288-288z m0 512c-123.71 0-224-100.29-224-224s100.29-224 224-224 224 100.29 224 224-100.29 224-224 224zM512 64a32 32 0 0 0-32 32v64a32 32 0 0 0 64 0V96a32 32 0 0 0-32-32zM512 832a32 32 0 0 0-32 32v64a32 32 0 0 0 64 0v-64a32 32 0 0 0-32-32zM195.22 195.22a32 32 0 0 0 0 45.25l45.25 45.25a32 32 0 0 0 45.25-45.25l-45.25-45.25a32 32 0 0 0-45.25 0zM738.27 738.27a32 32 0 0 0 0 45.25l45.25 45.25a32 32 0 0 0 45.25-45.25l-45.25-45.25a32 32 0 0 0-45.25 0zM64 512a32 32 0 0 0 32 32h64a32 32 0 0 0 0-64H96a32 32 0 0 0-32 32zM832 512a32 32 0 0 0 32 32h64a32 32 0 0 0 0-64h-64a32 32 0 0 0-32 32zM195.22 828.78a32 32 0 0 0 45.25 0l45.25-45.25a32 32 0 0 0-45.25-45.25l-45.25 45.25a32 32 0 0 0 0 45.25zM738.27 285.73a32 32 0 0 0 45.25 0l45.25-45.25a32 32 0 0 0-45.25-45.25l-45.25 45.25a32 32 0 0 0 0 45.25z" p-id="11703" fill="#ffffff"></path></svg>