<?xml version="1.0" standalone="no"?><!DOCTYPE svg PUBLIC "-//W3C//DTD SVG 1.1//EN" "http://www.w3.org/Graphics/SVG/1.1/DTD/svg11.dtd"><svg t="1687060000211" class="icon" viewBox="0 0 1024 1024" version="1.1" xmlns="http://www.w3.org/2000/svg" p-id="24325" xmlns:xlink="http://www.w3.org/1999/xlink" width="200" height="200"><path d="M261.7 522.6h0.2c19.3 0 35-15.7 35-35s-15.7-35-35-35c-31.9 0-58.8-37.7-58.8-82.4s26.9-82.4 58.8-82.4c19.3 0 35-15.7 35-35s-15.7-35-35-35c-35.4 0-69.5 17.3-93.7 47.5-22.6 28.4-35.1 65.6-35.1 104.9s12.5 76.5 35.1 104.9c0.6 0.8 1.3 1.6 2 2.4-22.9 13.2-43.4 31-61.1 53.2-38.3 48-59.5 111.4-59.5 178.4 0 19.3 15.7 35 35 35s35-15.7 35-35c0-51.2 15.7-99.1 44.1-134.7 26.6-33.3 61.3-51.7 97.7-51.7 0.2 0 0.3-0.1 0.3-0.1zM914.8 530.7c-17.7-22.2-38.2-40-61.1-53.2 0.7-0.8 1.3-1.6 2-2.4 22.6-28.4 35.1-65.6 35.1-104.9s-12.5-76.5-35.1-104.9c-24.1-30.2-58.3-47.5-93.7-47.5-19.3 0-35 15.7-35 35s15.7 35 35 35c31.9 0 58.8 37.7 58.8 82.4s-26.9 82.4-58.8 82.4c-19.3 0-35 15.7-35 35s15.7 35 35 35H762.3c36.4 0 71.1 18.4 97.7 51.7 28.5 35.6 44.1 83.5 44.1 134.7 0 19.3 15.7 35 35 35s35-15.7 35-35c0.2-67-21-130.3-59.3-178.3z" fill="#298fd8" p-id="24326"></path><path d="M747.4 541c-30.9-30.8-66.9-54.7-106.1-70.8 40.3-34.7 65.8-86 65.8-143.2 0-104.2-84.8-188.9-188.9-188.9-104.2 0-188.9 84.8-188.9 188.9 0 57 25.4 108.2 65.4 142.9C355.2 486 318.9 510 287.8 541c-61.2 61.1-95.1 142.4-95.5 228.9V850.8c0 19.3 15.7 35 35 35h580.5c19.3 0 35-15.7 35-35v-80.2-0.8c-0.3-86.4-34.2-167.6-95.4-228.8zM518.2 208.1c65.6 0 118.9 53.4 118.9 118.9s-53.4 118.9-118.9 118.9S399.3 392.6 399.3 327s53.4-118.9 118.9-118.9z m254.7 607.8H262.3v-44.6-0.6c0.2-140.5 114.8-254.8 255.3-254.8s255 114.3 255.3 254.8v45.2z" fill="#298fd8" p-id="24327"></path></svg>