<?xml version="1.0" standalone="no"?><!DOCTYPE svg PUBLIC "-//W3C//DTD SVG 1.1//EN" "http://www.w3.org/Graphics/SVG/1.1/DTD/svg11.dtd"><svg t="1687056257457" class="icon" viewBox="0 0 1024 1024" version="1.1" xmlns="http://www.w3.org/2000/svg" p-id="15009" xmlns:xlink="http://www.w3.org/1999/xlink" width="200" height="200"><path d="M0 661.333333a192 192 0 0 1 366.037333-81.194666l3.370667 7.68-78.826667 32.704A106.88 106.88 0 0 0 192 554.666667a106.666667 106.666667 0 0 0-4.629333 213.226666L192 768h490.197333l6.186667-0.064C827.370667 764.885333 938.666667 651.242667 938.666667 512c0-141.376-114.624-256-256-256-76.48 0-147.349333 33.706667-195.626667 90.88l-4.736 5.76L457.322667 384h-0.469334l-32.597333-23.104a105.834667 105.834667 0 0 0-56-19.413333L362.666667 341.333333a106.496 106.496 0 0 0-85.333334 42.666667H181.589333a192.085333 192.085333 0 0 1 245.76-116.821333l7.616 2.901333 4.842667 2.090667 2.773333-2.816A340.330667 340.330667 0 0 1 665.578667 171.093333l8.810666-0.32L682.666667 170.666667c188.522667 0 341.333333 152.810667 341.333333 341.333333 0 183.381333-144.789333 333.44-327.338667 341.034667l-6.848 0.213333L682.666667 853.333333H192a192 192 0 0 1-192-192z" fill="#ffffff" p-id="15010"></path></svg>