<?xml version="1.0" standalone="no"?><!DOCTYPE svg PUBLIC "-//W3C//DTD SVG 1.1//EN" "http://www.w3.org/Graphics/SVG/1.1/DTD/svg11.dtd"><svg t="1687618573523" class="icon" viewBox="0 0 1024 1024" version="1.1" xmlns="http://www.w3.org/2000/svg" p-id="3257" xmlns:xlink="http://www.w3.org/1999/xlink" width="200" height="200"><path d="M181.853091 128h368.267636c12.753455 0.558545 25.227636 5.399273 34.816 13.777455 12.101818 10.379636 19.362909 26.065455 19.269818 41.937454v247.389091h277.317819c5.818182-0.093091 11.729455 0.046545 17.408 1.396364a56.413091 56.413091 0 0 1 43.613091 51.665454V889.018182a56.180364 56.180364 0 0 1-49.431273 52.689454l-10.752 0.837819H739.141818c-0.279273-39.936 0-79.918545-0.093091-119.854546 25.879273 0 51.758545-0.139636 77.637818 0.046546a34.164364 34.164364 0 0 0 30.254546-22.155637 33.512727 33.512727 0 0 0-1.861818-27.322182c-32.768-55.994182-65.536-111.941818-98.164364-167.936a34.304 34.304 0 0 0-60.183273-3.537454c-32.814545 56.226909-65.489455 112.453818-98.350545 168.634182a33.792 33.792 0 0 0 26.437818 52.317091c25.925818-0.139636 51.898182-0.046545 77.870546-0.093091-0.093091 39.982545 0.232727 79.965091-0.139637 119.901091H190.696727c-8.471273-0.418909-17.082182-0.558545-25.088-3.584a56.226909 56.226909 0 0 1-35.607272-37.934546c-2.885818-10.100364-1.722182-20.666182-1.95491-30.999273V184.738909a55.668364 55.668364 0 0 1 16.197819-40.075636c9.821091-10.007273 23.552-15.965091 37.608727-16.663273M252.741818 282.949818a23.412364 23.412364 0 0 0-18.245818 23.598546 23.365818 23.365818 0 0 0 14.894545 20.666181c4.189091 1.768727 8.750545 1.675636 13.21891 1.629091h230.120727a23.179636 23.179636 0 1 0 0-46.452363H258.932364a28.625455 28.625455 0 0 0-6.144 0.558545m0 145.035637a23.086545 23.086545 0 1 0-11.357091 39.098181c4.561455 4.561455 11.077818 6.981818 17.547636 6.842182h233.844364a23.458909 23.458909 0 0 0 23.412363-23.272727 23.458909 23.458909 0 0 0-23.458909-23.272727H258.932364a29.463273 29.463273 0 0 0-6.190546 0.605091m0 158.068363a23.458909 23.458909 0 0 0-16.896 14.894546 23.04 23.04 0 0 0 0.558546 16.989091c3.165091 7.447273 10.519273 12.893091 18.618181 13.824 3.444364 0.372364 6.935273 0.186182 10.379637 0.232727h221.696c4.049455-0.046545 8.192 0.232727 12.101818-0.930909a23.179636 23.179636 0 0 0-6.516364-45.521455c-77.917091-0.093091-155.880727 0-233.844363-0.046545a28.392727 28.392727 0 0 0-6.050909 0.558545m-0.046546 149.736727a23.086545 23.086545 0 1 0-11.822545 38.632728 23.924364 23.924364 0 0 0 18.013091 7.261091h233.797818a23.179636 23.179636 0 1 0 0-46.452364H258.839273a27.973818 27.973818 0 0 0-6.144 0.558545z" fill="#3B8DFF" p-id="3258"></path></svg>