<?xml version="1.0" standalone="no"?><!DOCTYPE svg PUBLIC "-//W3C//DTD SVG 1.1//EN" "http://www.w3.org/Graphics/SVG/1.1/DTD/svg11.dtd"><svg t="1687088598240" class="icon" viewBox="0 0 1100 1024" version="1.1" xmlns="http://www.w3.org/2000/svg" p-id="1165" xmlns:xlink="http://www.w3.org/1999/xlink" width="214.84375" height="200"><path d="M833.656471 213.232941A315.331765 315.331765 0 0 0 528.263529 6.625882c-150.588235 0-275.877647 93.967059-309.308235 220.461177-124.385882 35.84-210.823529 123.482353-210.823529 226.183529 0 134.324706 150.588235 243.049412 336.112941 243.049412a411.407059 411.407059 0 0 0 227.990588-66.258824 357.496471 357.496471 0 0 0 210.82353 66.258824c170.767059 0 309.308235-108.724706 309.308235-243.049412 1.807059-121.976471-111.134118-221.364706-258.710588-240.037647z" fill="#A8D2DD" p-id="1166"></path><path d="M376.643383 719.683225m13.329319 7.006955l0 0q13.329319 7.006955 6.322365 20.336273l-47.507151 90.372786q-7.006955 13.329319-20.336274 6.322365l0 0q-13.329319-7.006955-6.322365-20.336274l47.507152-90.372786q7.006955-13.329319 20.336273-6.322364Z" fill="#DCEFF4" p-id="1167"></path><path d="M297.69364 878.571392m13.329319 7.006954l0 0q13.329319 7.006955 6.322365 20.336274l-47.507152 90.372786q-7.006955 13.329319-20.336274 6.322364l0 0q-13.329319-7.006955-6.322364-20.336273l47.507151-90.372786q7.006955-13.329319 20.336274-6.322365Z" fill="#DCEFF4" p-id="1168"></path><path d="M612.629412 729.090121m13.329319 7.006954l0 0q13.329319 7.006955 6.322365 20.336274l-47.507152 90.372786q-7.006955 13.329319-20.336274 6.322364l0 0q-13.329319-7.006955-6.322364-20.336273l47.507151-90.372786q7.006955-13.329319 20.336274-6.322365Z" fill="#DCEFF4" p-id="1169"></path><path d="M533.678779 887.680715m13.329319 7.006954l0 0q13.329319 7.006955 6.322365 20.336274l-47.507151 90.372785q-7.006955 13.329319-20.336274 6.322365l0 0q-13.329319-7.006955-6.322365-20.336274l47.507151-90.372785q7.006955-13.329319 20.336274-6.322365Z" fill="#DCEFF4" p-id="1170"></path></svg>