<?xml version="1.0" standalone="no"?><!DOCTYPE svg PUBLIC "-//W3C//DTD SVG 1.1//EN" "http://www.w3.org/Graphics/SVG/1.1/DTD/svg11.dtd"><svg t="1687088614707" class="icon" viewBox="0 0 1112 1024" version="1.1" xmlns="http://www.w3.org/2000/svg" p-id="1315" xmlns:xlink="http://www.w3.org/1999/xlink" width="217.1875" height="200"><path d="M842.577883 215.514863A318.706302 318.706302 0 0 0 533.916766 6.69679c-152.199762 0-278.829964 94.972652-312.618312 222.820451-125.717004 36.223543-213.079667 124.803805-213.079667 228.604043 0 135.762188 152.199762 245.650416 339.709869 245.650416a415.80975 415.80975 0 0 0 230.43044-66.967895 361.322235 361.322235 0 0 0 213.079667 66.967895c172.59453 0 312.618312-109.888228 312.618312-245.650416 1.826397-123.281807-112.323424-223.73365-261.479192-242.606421z" fill="#A8D2DD" p-id="1316"></path><path d="M443.205707 949.726516l-56.313912-32.26635 56.313912-32.570749a15.219976 15.219976 0 0 0-15.219976-26.482758l-56.313912 32.570749v-64.837099a15.219976 15.219976 0 0 0-15.219976-15.219976 15.219976 15.219976 0 0 0-15.219976 15.219976v64.837099L284.917955 858.406659a15.219976 15.219976 0 0 0-15.219976 26.482758l56.313912 32.570749-56.313912 32.26635a15.219976 15.219976 0 0 0 15.219976 26.482759L341.231867 943.638526v65.141498a15.219976 15.219976 0 0 0 15.219976 15.219976 15.524376 15.524376 0 0 0 15.219976-15.219976V943.638526l56.313912 32.570749a15.219976 15.219976 0 0 0 15.219976-26.482759zM778.045184 949.726516l-56.313912-32.26635 56.313912-32.570749a15.219976 15.219976 0 0 0-15.219976-26.482758l-56.313912 32.570749v-64.837099a15.219976 15.219976 0 0 0-15.219976-15.219976 15.219976 15.219976 0 0 0-15.219976 15.219976v64.837099l-56.313912-32.570749a15.219976 15.219976 0 0 0-15.219977 26.482758l56.313912 32.570749-56.313912 32.26635a15.219976 15.219976 0 0 0 15.219977 26.482759L676.071344 943.638526v65.141498a15.219976 15.219976 0 0 0 15.219976 15.219976 15.524376 15.524376 0 0 0 15.219976-15.219976V943.638526l56.313912 32.570749a15.219976 15.219976 0 0 0 15.219976-26.482759z" fill="#DCEFF4" p-id="1317"></path></svg>